<svg width="50" height="49" viewBox="0 0 50 49" fill="none" xmlns="http://www.w3.org/2000/svg">
<g clip-path="url(#clip0_6092_22)">
<g filter="url(#filter0_d_6092_22)">
<circle cx="25" cy="24" r="24" fill="white"/>
</g>
<path d="M17.5798 32.3297V15.6703C17.5798 14.9508 18.3744 14.5172 18.9791 14.9039L32.0009 23.2336C32.5611 23.5922 32.5611 24.4078 32.0009 24.7664L18.9791 33.0961C18.3744 33.4828 17.5798 33.0492 17.5798 32.3297Z" fill="#264065"/>
<path d="M17.9313 32.3297C17.9313 32.0015 17.9313 31.6711 17.9313 31.343C17.9313 30.5062 17.9313 29.6695 17.9313 28.8328C17.9313 27.6961 17.9313 26.5594 17.9313 25.425C17.9313 24.2062 17.9313 22.9875 17.9313 21.7664C17.9313 20.6789 17.9313 19.5914 17.9313 18.5015C17.9313 17.7586 17.9313 17.018 17.9313 16.275C17.9313 16.1015 17.9313 15.9258 17.9313 15.7523C17.9313 15.7265 17.9313 15.6984 17.9313 15.6726C17.9313 15.6609 17.9313 15.6562 17.9313 15.6398C17.9313 15.6187 17.9336 15.6 17.936 15.5789C17.9313 15.6539 17.9336 15.5906 17.9383 15.5695C17.95 15.5273 17.9618 15.4851 17.9735 15.4453C17.95 15.5156 17.9665 15.457 17.9782 15.4383C17.9946 15.4101 18.0086 15.382 18.0274 15.3539C18.0368 15.3375 18.0485 15.3234 18.0579 15.3094C18.0157 15.368 18.0438 15.3281 18.0555 15.3164C18.0883 15.2836 18.1188 15.2531 18.154 15.2226C18.0977 15.2719 18.1399 15.232 18.1586 15.2203C18.1774 15.2086 18.1961 15.1969 18.2172 15.1851C18.2336 15.1758 18.25 15.1687 18.2665 15.1594C18.3344 15.1219 18.2149 15.1734 18.2829 15.1523C18.3274 15.1406 18.3696 15.1265 18.4141 15.1172C18.4938 15.0961 18.3672 15.1101 18.4165 15.1172C18.4375 15.1195 18.4633 15.1148 18.4844 15.1148C18.5032 15.1148 18.5219 15.1148 18.5407 15.1172C18.5454 15.1172 18.6321 15.1336 18.5782 15.1195C18.5219 15.1055 18.6133 15.1289 18.6157 15.1289C18.6438 15.1359 18.6719 15.1453 18.6977 15.1547C18.7586 15.1734 18.7094 15.1594 18.6954 15.1523C18.7235 15.1664 18.7493 15.1805 18.775 15.1945C18.7844 15.1992 18.7938 15.2062 18.8008 15.2109C18.8032 15.2133 18.8055 15.2133 18.8079 15.2156C18.8407 15.2367 18.8758 15.2578 18.9086 15.2789C19.0844 15.3914 19.2579 15.5015 19.4336 15.614C20.1157 16.05 20.8 16.4883 21.4821 16.9242C22.443 17.5406 23.4063 18.1547 24.3672 18.7711C25.3868 19.4226 26.4063 20.0765 27.4282 20.7281C28.3071 21.2906 29.1836 21.8508 30.0625 22.4133C30.5852 22.7484 31.1079 23.0836 31.6329 23.4164C31.6844 23.4492 31.7336 23.482 31.7852 23.5125C31.7969 23.5195 31.8086 23.5265 31.8204 23.5336C31.8227 23.5336 31.825 23.5359 31.825 23.5359C31.8415 23.5476 31.8602 23.5594 31.8766 23.5711C31.8227 23.5289 31.8743 23.5711 31.886 23.5828C31.9094 23.6086 31.9329 23.632 31.9563 23.6555C31.9704 23.6695 31.9844 23.707 31.954 23.6531C31.9633 23.6695 31.975 23.6836 31.9844 23.7C31.9985 23.7234 32.0102 23.7492 32.0243 23.775C32.0336 23.7937 32.0407 23.8336 32.0219 23.768C32.036 23.8125 32.05 23.8547 32.0618 23.9015C32.0665 23.9203 32.0688 23.9367 32.0711 23.9555C32.0571 23.8664 32.0688 23.9508 32.0688 23.9719C32.0688 23.9976 32.0571 24.1359 32.0711 24.0422C32.0641 24.0867 32.0547 24.1336 32.0407 24.1758C32.036 24.1945 32.029 24.2109 32.0219 24.2273C32.0454 24.1547 32.029 24.2133 32.0172 24.232C32.0055 24.2531 31.9961 24.2742 31.9821 24.293C31.975 24.3023 31.9211 24.3773 31.9704 24.314C31.9399 24.3515 31.9047 24.3844 31.8696 24.4195C31.8602 24.4289 31.818 24.4617 31.8696 24.4219C31.8508 24.4359 31.8391 24.443 31.818 24.457C31.8157 24.457 31.8157 24.4594 31.8133 24.4594C31.804 24.4664 31.7922 24.4734 31.7829 24.4781C31.3844 24.7336 30.986 24.9867 30.5875 25.2422C29.7836 25.7555 28.9797 26.2711 28.1758 26.7844C27.1657 27.4289 26.1579 28.0758 25.1477 28.7203C24.1563 29.3555 23.1625 29.9906 22.1711 30.6258C21.3954 31.1226 20.6196 31.6195 19.8438 32.114C19.4969 32.3367 19.1524 32.5617 18.8032 32.7797C18.7657 32.8031 18.7282 32.8242 18.6883 32.8453C18.7469 32.8148 18.7047 32.8383 18.6907 32.843C18.6672 32.85 18.6438 32.857 18.6204 32.864C18.5969 32.8711 18.5735 32.8734 18.55 32.8805C18.6133 32.8617 18.5852 32.8781 18.5594 32.8781C18.5125 32.8805 18.468 32.8805 18.4211 32.8781C18.3555 32.8758 18.4188 32.8781 18.4329 32.8805C18.4071 32.8758 18.379 32.8711 18.3532 32.864C18.3297 32.8594 18.229 32.8219 18.2665 32.8383C18.304 32.8547 18.2055 32.8055 18.1868 32.7937C18.168 32.782 18.1493 32.7656 18.1305 32.7562C18.086 32.7351 18.1844 32.8101 18.1258 32.7515C18.093 32.7187 18.0602 32.6883 18.0297 32.6531C18.079 32.707 18.0204 32.6367 18.004 32.6133C17.9899 32.5898 17.9782 32.564 17.9641 32.5406C17.9547 32.5219 17.95 32.4844 17.9665 32.5476C17.9547 32.5008 17.9383 32.4562 17.9266 32.4094C17.9219 32.3906 17.9243 32.3461 17.9266 32.414C17.9336 32.3906 17.9313 32.3601 17.9313 32.3297C17.929 32.1469 17.7719 31.9687 17.5797 31.9781C17.3922 31.9875 17.2258 32.1328 17.2282 32.3297C17.2352 32.7937 17.4883 33.2414 17.9125 33.45C18.3133 33.6469 18.7774 33.6351 19.1594 33.3984C19.2461 33.3445 19.3329 33.2883 19.4172 33.232C19.9868 32.8687 20.5563 32.5031 21.1258 32.1398C22.0422 31.5539 22.9586 30.968 23.875 30.382C24.9133 29.7164 25.954 29.0531 26.9922 28.3875C27.9391 27.7828 28.886 27.1758 29.8329 26.5711C30.4704 26.1633 31.1102 25.7555 31.7477 25.3453C31.8813 25.2609 32.0149 25.1742 32.1485 25.0898C32.275 25.0078 32.3946 24.914 32.4883 24.7945C32.7954 24.4078 32.8516 23.8945 32.643 23.4469C32.5141 23.1726 32.2844 22.9992 32.0407 22.8422C31.8532 22.7226 31.6633 22.6008 31.4758 22.4812C30.761 22.0242 30.0461 21.5672 29.3336 21.1101C28.3493 20.4797 27.3625 19.8492 26.3782 19.2187C25.3422 18.5578 24.3086 17.8945 23.2727 17.2336C22.4079 16.6805 21.543 16.1273 20.6782 15.5742C20.2047 15.2719 19.7336 14.9695 19.2602 14.6672C18.9391 14.4609 18.5829 14.3555 18.1985 14.4422C17.6055 14.5758 17.2282 15.1219 17.2258 15.7125C17.2258 16.1695 17.2258 16.6242 17.2258 17.0812C17.2258 18.0187 17.2258 18.9562 17.2258 19.8937C17.2258 21.0844 17.2258 22.2726 17.2258 23.4633C17.2258 24.6844 17.2258 25.9078 17.2258 27.1289C17.2258 28.1625 17.2258 29.1961 17.2258 30.232C17.2258 30.8508 17.2258 31.4672 17.2258 32.0859C17.2258 32.168 17.2258 32.25 17.2258 32.3344C17.2258 32.5172 17.3875 32.6953 17.5774 32.6859C17.7696 32.6719 17.9313 32.5265 17.9313 32.3297Z" fill="#264065"/>
</g>
<defs>
<filter id="filter0_d_6092_22" x="-49" y="-26" width="148" height="148" filterUnits="userSpaceOnUse" color-interpolation-filters="sRGB">
<feFlood flood-opacity="0" result="BackgroundImageFix"/>
<feColorMatrix in="SourceAlpha" type="matrix" values="0 0 0 0 0 0 0 0 0 0 0 0 0 0 0 0 0 0 127 0" result="hardAlpha"/>
<feOffset dy="24"/>
<feGaussianBlur stdDeviation="25"/>
<feComposite in2="hardAlpha" operator="out"/>
<feColorMatrix type="matrix" values="0 0 0 0 0 0 0 0 0 0 0 0 0 0 0 0 0 0 0.15 0"/>
<feBlend mode="normal" in2="BackgroundImageFix" result="effect1_dropShadow_6092_22"/>
<feBlend mode="normal" in="SourceGraphic" in2="effect1_dropShadow_6092_22" result="shape"/>
</filter>
<clipPath id="clip0_6092_22">
<rect width="50" height="49" fill="white"/>
</clipPath>
</defs>
</svg>
